<svg width="41" height="41" viewBox="0 0 41 41" fill="none" xmlns="http://www.w3.org/2000/svg">
<rect x="0.5" y="0.0546875" width="40.0002" height="40.0002" rx="20.0001" fill="#828699"/>
<path d="M20.5027 8.05469C14.6112 8.05469 9.83594 12.7543 9.83594 18.5487C9.83594 22.829 11.5205 24.8736 13.8312 26.7362L13.8428 26.7423V31.7658C13.8428 32.0032 14.098 32.1389 14.2748 31.9971L18.3194 28.8023L18.4064 28.8424C19.0849 28.975 19.7865 29.0459 20.5027 29.0459C26.3941 29.0459 31.1694 24.3462 31.1694 18.5518C31.1723 12.7544 26.3941 8.05469 20.5027 8.05469ZM12.9093 18.5364C12.9093 16.0601 14.6866 14.2839 16.9278 14.2839C18.8761 14.2839 20.3345 15.6068 20.694 17.6205H19.1516C18.9167 16.5258 17.9918 15.8443 16.9278 15.8443C15.4201 15.8443 14.4169 16.9884 14.4169 18.5364C14.4169 20.0876 15.5564 21.207 16.9278 21.207C17.9744 21.207 18.8674 20.5409 19.1371 19.514H20.6824C20.3055 21.4937 18.8558 22.7889 16.9278 22.7889C14.6866 22.792 12.9093 21.0127 12.9093 18.5364ZM27.119 22.6286H25.7012V19.2272C25.7012 18.4439 25.2721 18.0245 24.6139 18.0245C23.8775 18.0245 23.4049 18.5025 23.4049 19.4739V22.6286H21.9871V14.3117H23.4049V17.4386C23.7441 16.8897 24.295 16.6214 25.043 16.6214C25.649 16.6214 26.1419 16.8311 26.5275 17.2628C26.9247 17.6945 27.1219 18.2805 27.1219 19.0391V22.6286H27.119Z" fill="white"/>
</svg>
