<svg width="30" height="30" viewBox="0 0 30 30" fill="none" xmlns="http://www.w3.org/2000/svg">
<rect width="30" height="30" rx="15" fill="#828699"/>
<path d="M18.8918 6.77295H10.9378C10.4044 6.77295 9.97266 7.20473 9.97266 7.73386V15.6244C9.97266 16.1577 10.4044 16.5853 10.9378 16.5853H14.6037C14.5783 17.525 14.1846 18.5452 13.6174 19.4511C12.9782 20.4713 11.6193 21.6015 11.6066 21.61C11.5008 21.7116 11.4204 21.8301 11.4204 21.9952C11.4204 22.1222 11.4839 22.2195 11.5558 22.3211L14.1126 25.1869C14.1126 25.1869 14.2354 25.3182 14.3412 25.3436C14.4555 25.369 14.5867 25.3732 14.6799 25.3055C19.1077 21.8978 19.7469 17.6266 19.8612 15.3154C19.8612 15.3027 19.8612 7.73386 19.8612 7.73386C19.8612 7.20049 19.4294 6.77295 18.8918 6.77295Z" fill="white"/>
</svg>
