<svg width="41" height="41" viewBox="0 0 41 41" fill="none" xmlns="http://www.w3.org/2000/svg">
<rect x="0.5" y="0.0546875" width="40.0002" height="40.0002" rx="20.0001" fill="#828699"/>
<path fill-rule="evenodd" clip-rule="evenodd" d="M30.4463 15.8017C30.4549 16.0216 30.4578 16.2414 30.4578 16.4613C30.4578 23.128 25.696 30.8243 16.9882 30.8243C14.3134 30.8243 11.8261 29.9847 9.73047 28.5554C10.1009 28.5954 10.4771 28.6255 10.8591 28.6255C13.0769 28.6255 15.1197 27.8157 16.74 26.4564C14.6684 26.4264 12.9192 24.9571 12.3159 22.9581C12.6055 23.0181 12.9037 23.0481 13.2088 23.0481C13.6389 23.0481 14.0564 22.9882 14.4567 22.8683C12.2889 22.4085 10.6561 20.3696 10.6561 17.9208C10.6561 17.8908 10.6561 17.8808 10.6561 17.8608C11.295 18.2306 12.0262 18.4604 12.8027 18.4903C11.5307 17.5808 10.6946 16.0316 10.6946 14.2825C10.6946 13.3629 10.9274 12.4933 11.3373 11.7437C13.6716 14.8022 17.1614 16.8112 21.0958 17.0211C21.015 16.6513 20.9736 16.2616 20.9736 15.8718C20.9736 13.0831 23.0933 10.8242 25.7085 10.8242C27.07 10.8242 28.2996 11.434 29.1627 12.4135C30.2433 12.1936 31.2555 11.7739 32.1715 11.1942C31.8164 12.3736 31.0669 13.3629 30.0874 13.9826C31.0457 13.8626 31.9598 13.593 32.8075 13.1932C32.1715 14.2027 31.3709 15.0921 30.4463 15.8017Z" fill="white"/>
</svg>
