<svg width="87" height="87" viewBox="0 0 87 87" fill="none" xmlns="http://www.w3.org/2000/svg">
<path d="M18.8477 66.7004C18.8477 69.103 21.4446 71.0504 24.6477 71.0504C27.8507 71.0504 30.4477 69.103 30.4477 66.7004C30.4477 64.2977 27.8507 62.3504 24.6477 62.3504C21.4446 62.3504 18.8477 60.403 18.8477 58.0004C18.8477 55.5977 21.4446 53.6504 24.6477 53.6504C27.8507 53.6504 30.4477 55.5977 30.4477 58.0004" stroke="#5F249F" stroke-width="2" stroke-miterlimit="10"/>
<path d="M24.6484 53.6498V49.2998" stroke="#5F249F" stroke-width="2" stroke-miterlimit="10"/>
<path d="M24.6484 75.3998V71.0498" stroke="#5F249F" stroke-width="2" stroke-miterlimit="10"/>
<path d="M58.7219 79.7502H18.1219C15.319 79.7502 13.0469 77.4781 13.0469 74.6752V30.4502" stroke="#5F249F" stroke-width="2" stroke-miterlimit="10"/>
<path d="M23.1992 13.05V12.325C23.1992 9.52215 25.4714 7.25 28.2742 7.25H68.8742" stroke="#5F249F" stroke-width="2" stroke-miterlimit="10"/>
<path d="M68.1484 52.2H79.0234C81.8263 52.2 84.0984 49.9278 84.0984 47.125V43.5H73.9484" stroke="#5F249F" stroke-width="2" stroke-miterlimit="10"/>
<path d="M21.7484 26.1004H2.89844V22.4754C2.89844 19.6725 5.17059 17.4004 7.97344 17.4004H48.5734" stroke="#5F249F" stroke-width="2" stroke-miterlimit="10"/>
<path d="M79.0238 52.2C76.2209 52.2 73.9488 49.9279 73.9488 47.125V12.325C73.9488 9.52215 71.6766 7.25 68.8738 7.25C66.0709 7.25 63.7988 9.52215 63.7988 12.325V74.675C63.7988 77.4779 61.5266 79.75 58.7238 79.75C55.9209 79.75 53.6488 77.4779 53.6488 74.675V22.475C53.6488 19.6722 51.3766 17.4 48.5738 17.4C45.7709 17.4 43.4988 19.6722 43.4988 22.475V26.1H20.293" stroke="#5F249F" stroke-width="2" stroke-miterlimit="10"/>
<path d="M72.5015 60.9004H69.6016V63.8004H72.5015V60.9004Z" fill="#5F249F"/>
<path d="M72.5015 66.7002H69.6016V69.6002H72.5015V66.7002Z" fill="#5F249F"/>
<path d="M72.5015 72.5H69.6016V75.4H72.5015V72.5Z" fill="#5F249F"/>
</svg>
