<svg width="84" height="84" viewBox="0 0 84 84" fill="none" xmlns="http://www.w3.org/2000/svg">
<path d="M9.80078 18.1998C13.6668 18.1998 16.8008 14.7524 16.8008 10.4998C16.8008 6.24721 13.6668 2.7998 9.80078 2.7998C5.93479 2.7998 2.80078 6.24721 2.80078 10.4998C2.80078 14.7524 5.93479 18.1998 9.80078 18.1998Z" stroke="#5F249F" stroke-width="2" stroke-miterlimit="10"/>
<path d="M34.0117 20.4229L47.3159 27.0084" stroke="#5F249F" stroke-width="2" stroke-miterlimit="10"/>
<path d="M43.4023 25.0693V33.6093" stroke="#5F249F" stroke-width="2" stroke-miterlimit="10"/>
<path d="M22.0938 45.1054C22.0938 45.1054 25.4705 72.3116 26.6115 81.3794C26.6983 82.0682 27.2877 82.6002 28.0003 82.6002H46.2003C46.9031 82.6002 47.4855 82.0822 47.5849 81.406L54.5849 33.806C54.5947 33.7388 54.6003 33.6702 54.6003 33.6002C54.6003 32.8274 53.9731 32.2002 53.2003 32.2002C53.1345 32.2002 53.0688 32.2044 53.0044 32.2142L33.8299 35.0002" stroke="#5F249F" stroke-width="2" stroke-miterlimit="10"/>
<path d="M73.0424 52.0402C74.0546 51.0266 75.4546 50.3994 77.0016 50.3994C80.0941 50.3994 82.6015 52.9068 82.6015 55.9994V62.9994H54.6016" stroke="#5F249F" stroke-width="2" stroke-miterlimit="10"/>
<path d="M58.8008 58.7994V55.9994C58.8008 52.9068 61.3082 50.3994 64.4008 50.3994C67.4934 50.3994 70.0008 52.9068 70.0008 55.9994V62.9994" stroke="#5F249F" stroke-width="2" stroke-miterlimit="10"/>
<path d="M64.4023 46.1996C64.4023 43.107 66.9097 40.5996 70.0023 40.5996C73.0949 40.5996 75.6023 43.107 75.6023 46.1996V50.5802" stroke="#5F249F" stroke-width="2" stroke-miterlimit="10"/>
<path d="M54.6016 68.5996H67.2016" stroke="#5F249F" stroke-width="2" stroke-miterlimit="10"/>
<path d="M70 68.5996H74.2" stroke="#5F249F" stroke-width="2" stroke-miterlimit="10"/>
<path d="M40.6008 8.40039H37.8008V11.2004H40.6008V8.40039Z" fill="#5F249F"/>
<path d="M46.1984 8.40039H43.3984V11.2004H46.1984V8.40039Z" fill="#5F249F"/>
<path d="M34.9992 8.40039H32.1992V11.2004H34.9992V8.40039Z" fill="#5F249F"/>
<path d="M31.8508 15.4002L24.7136 20.8812C24.3412 21.1682 23.8008 20.9022 23.8008 20.4318V5.6002C23.8008 4.8274 24.428 4.2002 25.2008 4.2002H53.2008C53.9736 4.2002 54.6008 4.8274 54.6008 5.6002V14.0002C54.6008 14.773 53.9736 15.4002 53.2008 15.4002H31.8508Z" stroke="#5F249F" stroke-width="2" stroke-miterlimit="10"/>
<path d="M53.1718 43.4004H43.3984" stroke="#5F249F" stroke-width="2" stroke-miterlimit="10"/>
<path d="M40.6008 43.4004H37.8008" stroke="#5F249F" stroke-width="2" stroke-miterlimit="10"/>
<path d="M15.3992 41.9998V76.9998L16.9476 77.5164C18.531 78.0442 19.5992 79.531 19.5992 81.1998C19.5992 81.9726 18.972 82.5998 18.1992 82.5998H11.1992C9.65222 82.5998 8.39922 81.3468 8.39922 79.7998V58.3266C8.39922 56.8048 7.98482 55.311 7.20222 54.0048L5.39622 50.9948C4.61362 49.69 4.19922 48.1962 4.19922 46.673V28.1132C4.19922 25.7486 6.13542 23.7998 8.50142 23.7998C10.1492 23.7998 11.6374 24.476 12.7728 25.6114C14.8574 27.696 21.1098 33.9512 21.1098 33.9512L28.8966 36.5468C30.0026 36.9206 30.7992 37.9678 30.7992 39.1998C30.7992 40.7468 29.5462 41.9998 27.9992 41.9998C27.6884 41.9998 27.3888 41.9494 27.1088 41.8556L18.7116 39.0556C18.3014 38.9184 17.929 38.6888 17.6238 38.3836L11.699 32.4588" stroke="#5F249F" stroke-width="2" stroke-miterlimit="10"/>
</svg>
