<svg width="90" height="90" viewBox="0 0 90 90" fill="none" xmlns="http://www.w3.org/2000/svg">
<path d="M8.14062 9.27344L17.1751 25.3159C17.9986 26.3794 19.2676 26.9989 20.6131 27.0004C21.1426 27.0004 21.6676 26.9074 22.1641 26.7199L27.2551 24.2629" stroke="#5F249F" stroke-width="2" stroke-miterlimit="10"/>
<path d="M29.496 15.435L9.4065 9.0555C9.2775 9.0195 9.141 9 9 9C8.3175 9 7.7415 9.456 7.56 10.08L1.5615 31.0755C1.521 31.2105 1.5 31.353 1.5 31.5C1.5 32.1885 1.9635 32.7675 2.595 32.9445L23.433 39.5445" stroke="#5F249F" stroke-width="2" stroke-miterlimit="10"/>
<path d="M84.9989 45.3809L66.7109 59.2739C66.0599 59.7689 65.2784 59.9984 64.5014 59.9999C63.7244 59.9984 62.9429 59.7689 62.2919 59.2739L44.0039 45.3809" stroke="#5F249F" stroke-width="2" stroke-miterlimit="10"/>
<path d="M51.003 75H84C84.828 75 85.5 74.328 85.5 73.5V46.5C85.5 45.672 84.828 45 84 45H45C44.172 45 43.5 45.672 43.5 46.5V64.5" stroke="#5F249F" stroke-width="2" stroke-miterlimit="10"/>
<path d="M51.3999 83.9186L23.9844 78.2471" stroke="#5F249F" stroke-width="2" stroke-miterlimit="10"/>
<path d="M60.6165 75L59.7555 78.408C58.911 81.6255 55.5945 84 52.5 84C48.3585 84 45 80.6415 45 76.5C45 74.046 46.1775 71.868 48 70.5L4.5 61.5C2.679 62.868 1.5 65.046 1.5 67.5C1.5 71.2665 4.275 74.3835 7.893 74.919L26.55 78.7785" stroke="#5F249F" stroke-width="2" stroke-miterlimit="10"/>
<path d="M81.5972 16.5075C81.4802 16.503 81.3632 16.5 81.2447 16.5C77.7617 16.5 74.8337 18.8745 73.9892 22.092L68.1992 45" stroke="#5F249F" stroke-width="2" stroke-miterlimit="10"/>
<path d="M78.2205 28.527L85.5015 30C87.3225 28.632 88.5015 26.454 88.5015 24C88.5015 20.2335 85.566 17.1165 81.9495 16.581L38.442 7.5795C38.442 7.5795 37.6185 7.5 37.3425 7.5C33.822 7.5 30.9315 9.8745 30.087 13.092L17.25 64.137" stroke="#5F249F" stroke-width="2" stroke-miterlimit="10"/>
<path d="M67.4988 25.6529L35.2578 18.9824" stroke="#5F249F" stroke-width="2" stroke-miterlimit="10"/>
<path d="M57.2538 31.4999L33.0078 26.4824" stroke="#5F249F" stroke-width="2" stroke-miterlimit="10"/>
<path d="M64.5087 32.9997L60.5352 32.1777" stroke="#5F249F" stroke-width="2" stroke-miterlimit="10"/>
<path d="M52.4973 38.4809L30.7578 33.9824" stroke="#5F249F" stroke-width="2" stroke-miterlimit="10"/>
<path d="M39.0078 43.6544L28.5078 41.4824" stroke="#5F249F" stroke-width="2" stroke-miterlimit="10"/>
<path d="M67.5 81H81" stroke="#5F249F" stroke-width="2" stroke-miterlimit="10"/>
<path d="M84 81H87" stroke="#5F249F" stroke-width="2" stroke-miterlimit="10"/>
</svg>
