<svg width="90" height="90" viewBox="0 0 90 90" fill="none" xmlns="http://www.w3.org/2000/svg">
<g clip-path="url(#clip0_300_19297)">
<path d="M30.6675 63L27.9375 73.5" stroke="#5F249F" stroke-width="2" stroke-miterlimit="10"/>
<path d="M15 73.5H18" stroke="#5F249F" stroke-width="2" stroke-miterlimit="10"/>
<path d="M21 73.5H43.5" stroke="#5F249F" stroke-width="2" stroke-miterlimit="10"/>
<path d="M1.5 54H43.5" stroke="#5F249F" stroke-width="2" stroke-miterlimit="10"/>
<path d="M48.8235 25.5C46.4205 21.852 42.249 19.5 37.5 19.5C30.0435 19.5 24 25.5435 24 33C24 40.4565 30.0435 46.5 37.5 46.5C39.678 46.5 41.7075 46.02 43.5 45.1395" stroke="#5F249F" stroke-width="2" stroke-miterlimit="10"/>
<path d="M30.668 32.1677L36.0005 37.5002L44.321 29.1797" stroke="#5F249F" stroke-width="2" stroke-miterlimit="10"/>
<path d="M48 66H61.5" stroke="#5F249F" stroke-width="2" stroke-miterlimit="10"/>
<path d="M85.5 76.5H66" stroke="#5F249F" stroke-width="2" stroke-miterlimit="10"/>
<path d="M9 18H6V21H9V18Z" fill="#5F249F"/>
<path d="M9 24H6V27H9V24Z" fill="#5F249F"/>
<path d="M9 30H6V33H9V30Z" fill="#5F249F"/>
<path d="M6 78V72" stroke="#5F249F" stroke-width="2" stroke-miterlimit="10"/>
<path d="M6 90V84" stroke="#5F249F" stroke-width="2" stroke-miterlimit="10"/>
<path d="M9 81H13.5" stroke="#5F249F" stroke-width="2" stroke-miterlimit="10"/>
<path d="M3 81H-1.5" stroke="#5F249F" stroke-width="2" stroke-miterlimit="10"/>
<path d="M82.5 6V0" stroke="#5F249F" stroke-width="2" stroke-miterlimit="10"/>
<path d="M82.5 18V12" stroke="#5F249F" stroke-width="2" stroke-miterlimit="10"/>
<path d="M85.5 9H90" stroke="#5F249F" stroke-width="2" stroke-miterlimit="10"/>
<path d="M79.5 9H75" stroke="#5F249F" stroke-width="2" stroke-miterlimit="10"/>
<path d="M43.5 63H40.5" stroke="#5F249F" stroke-width="2" stroke-miterlimit="10"/>
<path d="M76.5 45V33C76.5 31.3425 75.156 30 73.5 30H51C49.344 30 48 31.3425 48 33V73.5C48 75.156 49.344 76.5 51 76.5H61.5" stroke="#5F249F" stroke-width="2" stroke-miterlimit="10"/>
<path d="M84 49.5H67.5C66.672 49.5 66 50.172 66 51V82.5C66 83.328 66.672 84 67.5 84H84C84.828 84 85.5 83.328 85.5 82.5V51C85.5 50.172 84.828 49.5 84 49.5Z" stroke="#5F249F" stroke-width="2" stroke-miterlimit="10"/>
<path d="M73.5 25.5V16.5C73.5 14.0145 71.4855 12 69 12H6C3.5145 12 1.5 14.0145 1.5 16.5V58.5C1.5 60.9855 3.5145 63 6 63H37.5" stroke="#5F249F" stroke-width="2" stroke-miterlimit="10"/>
</g>
<defs>
<clipPath id="clip0_300_19297">
<rect width="90" height="90" fill="white"/>
</clipPath>
</defs>
</svg>
