<svg width="71" height="62" viewBox="0 0 71 62" fill="none" xmlns="http://www.w3.org/2000/svg">
<path fill-rule="evenodd" clip-rule="evenodd" d="M9.88636 0.184364C9.02569 0.46994 8.13383 1.06844 7.54365 1.75648C7.27167 2.07369 7.04409 2.36751 7.03781 2.40953C7.03171 2.45155 6.93912 2.76096 6.83201 3.09712C6.69586 3.52464 6.63694 5.66913 6.63644 10.2313C6.63595 13.819 6.57092 16.7912 6.4922 16.8364C6.41331 16.8815 6.09776 16.718 5.79079 16.473C5.48382 16.2281 4.73158 15.6411 4.11913 15.1685C2.96948 14.2815 2.70608 13.9638 2.54962 13.2773C2.47272 12.9399 2.39416 10.3711 2.35372 6.87882L2.34448 6.07664H1.18922H0.0339604L0.0248833 6.87882C-0.0406365 12.7052 0.00689435 13.7909 0.366841 14.6815C0.758804 15.6515 1.14252 16.0571 3.05018 17.518C3.74846 18.0526 4.27938 18.5506 4.23003 18.6244C4.18069 18.6984 4.24967 18.7587 4.38335 18.7587C4.51687 18.7587 5.07866 19.1088 5.6317 19.5366L6.63727 20.3145L6.59518 33.3264L6.55293 46.3384L6.14892 46.2967C5.6142 46.2414 4.19026 46.8825 3.63227 47.4298C2.88779 48.16 2.65063 48.9032 2.64155 50.5357C2.63165 52.2735 2.93482 53.0866 3.87768 53.8531C4.23234 54.1414 4.39458 54.3666 4.27641 54.4068C4.16699 54.4439 4.26304 54.4762 4.48997 54.4783C4.71689 54.4804 5.2739 54.5414 5.72775 54.6137L6.55293 54.7452L6.63545 57.2649C6.72457 59.9855 6.81584 60.3053 7.73477 61.1133C8.65766 61.925 9.10903 62 13.0719 62C16.9597 62 17.4814 61.9196 18.3257 61.1905C19.3744 60.2852 19.4194 60.1382 19.5084 57.3397L19.5909 54.7422L35.4254 54.7032C44.1344 54.6818 51.3155 54.7162 51.3837 54.7796C51.4517 54.843 51.521 56.0384 51.5376 57.4358L51.5679 59.9768L52.2389 60.7035C53.3638 61.9219 53.6754 61.9928 57.9261 61.9966C61.9292 62.0003 62.3737 61.9273 63.2992 61.1133C64.2181 60.3052 64.3094 59.9857 64.3985 57.2633L64.481 54.7422L65.7188 54.5709C66.3996 54.4768 66.8612 54.3909 66.7445 54.3799C66.628 54.3691 66.8067 54.1373 67.1418 53.865C68.0991 53.0866 68.3515 52.4024 68.3558 50.5736C68.3597 48.8452 68.1556 48.1716 67.4017 47.4265C66.8793 46.91 65.3358 46.2298 64.8321 46.2938L64.481 46.3384L64.4388 33.3264L64.3967 20.3145L65.4023 19.5366C65.9553 19.1088 66.5171 18.7587 66.6506 18.7587C66.7843 18.7587 66.8543 18.6997 66.8061 18.6278C66.758 18.5558 67.4035 17.9652 68.2404 17.3154C69.849 16.0664 70.5607 15.2508 70.8325 14.3449C70.9236 14.0413 70.9985 12.0566 70.999 9.93474L71 6.07664H69.8447H68.6895L68.684 6.80242C68.6413 12.5463 68.5999 13.3435 68.3203 13.8181C67.9851 14.3869 64.7669 16.9652 64.5482 16.8401C64.4624 16.7909 64.3985 13.9635 64.3985 10.2107C64.3985 4.55983 64.3615 3.561 64.1275 2.89023C63.8111 1.98308 62.7858 0.916257 61.7284 0.393694L61.0152 0.0411938L35.7645 0.00864803C14.8005 -0.0182441 10.4074 0.0115514 9.88636 0.184364ZM59.8136 2.26346C60.5449 2.45155 61.347 3.04394 61.682 3.64367C61.8152 3.88218 61.9424 4.51002 61.9649 5.03885L62.0055 6.00024L57.4257 6.04088L52.8459 6.08153V7.14621V8.21089L57.4257 8.25154L62.0055 8.29218V19.3699V30.4476H35.517H9.02849V19.3699V8.29218L28.7744 8.25337C44.3608 8.22266 48.5343 8.17438 48.5874 8.02418C48.6244 7.91951 48.6254 7.43836 48.5896 6.95522L48.5244 6.07664H28.8125C11.3496 6.07664 9.08972 6.05021 9.00456 5.845C8.95175 5.71757 8.95901 5.23977 9.02057 4.78307C9.19947 3.45771 10.109 2.47768 11.3695 2.25185C12.3915 2.0688 59.1002 2.07995 59.8136 2.26346ZM33.2066 14.8623L29.8265 17.9944L30.774 18.8716L31.7215 19.7488L35.1607 16.5675L38.6 13.3859L37.6625 12.5579C37.1467 12.1026 36.6939 11.7301 36.6557 11.7301C36.6178 11.7301 35.0656 13.1396 33.2066 14.8623ZM21.3261 17.305L16.627 21.6576L17.5256 22.5001C18.0199 22.9635 18.466 23.3426 18.5167 23.3426C18.681 23.3426 27.8427 14.7996 27.8427 14.6464C27.8427 14.4792 26.3026 12.9525 26.134 12.9525C26.0742 12.9525 23.9106 14.9112 21.3261 17.305ZM25.9438 21.5864L24.5474 22.8859L25.4939 23.7623L26.4406 24.6386L27.8809 23.3052L29.3213 21.9716L28.4225 21.1292C27.9284 20.6658 27.4826 20.2867 27.4321 20.2867C27.3816 20.2867 26.7119 20.8716 25.9438 21.5864ZM18.4262 32.8019C18.5761 33.0263 17.2325 35.0481 16.5821 35.5768C15.497 36.4588 15.0977 36.5422 11.9166 36.5512L9.02849 36.5595L8.98146 34.8116C8.95571 33.8504 8.97189 32.9736 9.0176 32.8635C9.08345 32.7049 10.0613 32.6632 13.7172 32.6632C16.3056 32.6632 18.3744 32.7241 18.4262 32.8019ZM50.592 34.616C51.2416 35.6482 52.0887 36.7885 52.4744 37.1502C52.8601 37.5117 53.1261 37.8533 53.0657 37.9093C53.0053 37.9652 53.1073 38.011 53.2925 38.011C53.4777 38.011 53.9913 38.1656 54.4341 38.3548C55.1617 38.6656 55.5634 38.7059 58.6222 38.775L62.0055 38.8514L62.0421 42.4317C62.0667 44.8465 62.0198 46.0776 61.898 46.2134C61.7568 46.3709 60.7514 46.4148 57.2818 46.4148H52.8459V47.4844V48.5539L58.5809 48.5561C64.2081 48.5581 65.146 48.6053 64.9646 48.877C64.9147 48.9514 65.0308 49.0123 65.2224 49.0123C65.9233 49.0123 66.2709 50.5168 65.8073 51.5439C65.332 52.5972 67.5075 52.5266 35.517 52.5266C11.3557 52.5266 6.53577 52.4923 6.08093 52.3162C5.46616 52.0783 4.98508 51.3034 4.98508 50.5505C4.98508 49.9089 5.4051 49.0123 5.70563 49.0123C5.83882 49.0123 5.97877 48.9265 6.01656 48.8213C6.07103 48.6701 10.5097 48.6221 27.3201 48.5905L48.5549 48.5506V47.4833V46.416L28.7917 46.3772L9.02849 46.3384V42.5949V38.8514L12.4118 38.775C15.4706 38.7059 15.8723 38.6656 16.5999 38.3548C17.0427 38.1656 17.4662 38.011 17.5413 38.011C17.7855 38.011 19.1867 36.6004 19.6161 35.9223C19.8464 35.5583 20.0896 35.2607 20.1566 35.2607C20.2236 35.2607 20.2786 35.1719 20.2786 35.0636C20.2786 34.9551 20.5915 34.3703 20.9741 33.7639L21.6695 32.6615L35.5401 32.7004L49.4108 32.7396L50.592 34.616ZM62.0055 34.6495V36.5595L59.1173 36.5512C55.9362 36.5422 55.537 36.4588 54.4519 35.5768C53.798 35.0452 52.4582 33.0259 52.6092 32.7996C52.6644 32.7171 54.6362 32.6752 57.3546 32.6991L62.0055 32.7396V34.6495ZM25.1196 36.5595V37.5526H35.517H45.9143V36.5595V35.5663H35.517H25.1196V36.5595ZM25.0874 40.494C25.0503 40.5991 25.0492 41.0802 25.085 41.5635L25.1502 42.4421H32.8917H40.6331V41.3725V40.303H32.894C26.8489 40.303 25.1401 40.3448 25.0874 40.494ZM43.6038 41.3725V42.4421H44.7437H45.8838L45.949 41.5635C45.9848 41.0802 45.9837 40.5991 45.9465 40.494C45.9011 40.3656 45.5054 40.303 44.7414 40.303H43.6038V41.3725ZM17.1617 56.531C17.2427 59.6515 16.9858 59.8609 13.0719 59.8609C9.19518 59.8609 8.94598 59.6642 8.94598 56.6061C8.94598 55.651 8.99681 54.8226 9.05886 54.765C9.12091 54.7075 10.9591 54.6789 13.1435 54.7014L17.1153 54.7422L17.1617 56.531ZM62.0327 56.5734C62.0791 59.6883 61.8655 59.8609 57.9621 59.8609C54.0853 59.8609 53.8361 59.6642 53.8361 56.6061C53.8361 55.651 53.887 54.8226 53.949 54.765C54.0111 54.7075 55.8492 54.6789 58.0337 54.7014L62.0055 54.7422L62.0327 56.5734Z" fill="#5F249F"/>
</svg>
