<svg width="400" height="295" viewBox="0 0 400 295" fill="none" xmlns="http://www.w3.org/2000/svg">
<g opacity="0.1">
<path fill-rule="evenodd" clip-rule="evenodd" d="M374.827 52.9701C370.28 54.4106 365.001 58.601 363.097 62.2827C362.292 63.8382 360.774 69.3168 359.723 74.4582C355.938 92.9666 350.392 106.745 341.116 120.681C334.114 131.202 321.477 143.853 311.115 150.717C300.613 157.675 296.625 164.345 297.897 172.828C300.062 187.255 315.496 194.273 328.59 186.784C343.623 178.186 363.65 159.175 374.058 143.622C380.932 133.349 388.121 118.905 392.186 107.197C395.964 96.3179 400 78.0959 400 71.92C400 58.8787 387.02 49.1073 374.827 52.9701ZM12.9308 53.744C6.42107 56.3406 1.499 62.5021 0.104874 69.7985C-0.276474 71.7955 0.398053 77.5241 1.86979 84.788C16.5249 157.14 69.5477 203.213 148.961 212.603C154.982 213.314 241.424 218.376 247.559 218.376C248.056 218.376 249.721 219.434 251.257 220.726C253.385 222.516 257.552 231.134 268.741 256.882C276.82 275.477 284.071 291.443 284.854 292.366C286.126 293.866 288.431 294.042 306.728 294.042C324.672 294.042 327.18 293.858 327.18 292.538C327.18 290.817 292.838 211.661 289.054 204.66C285.24 197.603 276.335 188.468 270.002 185.117C259.39 179.5 256.988 179.158 210.763 176.685C187.048 175.416 162.903 173.914 157.106 173.347C92.9078 167.065 52.5882 133.397 40.7013 76.1439C38.4735 65.4157 37.7185 63.4263 34.3554 59.4314C29.5128 53.6789 19.6543 51.0612 12.9308 53.744ZM98.3808 221.373C96.6484 221.872 93.6302 223.882 91.6736 225.839C88.5261 228.988 86.8234 232.97 76.8432 260.522C70.642 277.641 65.5752 292.14 65.5848 292.742C65.6145 294.703 68.374 295 86.5762 295C99.452 295 104.964 294.661 106.095 293.802C108.091 292.285 125.973 242.927 125.944 239.012C125.858 227.014 111.247 217.664 98.3808 221.373Z" fill="#A177D8"/>
<path d="M231.1 40.4237C222.701 42.5211 215.243 47.3648 209.913 54.185C204.584 61.0052 201.687 69.4105 201.685 78.0649C201.689 86.11 199.191 93.9575 194.538 100.522C189.885 107.086 183.306 112.042 175.711 114.705C168.117 117.368 159.882 117.606 152.147 115.386C144.411 113.166 137.556 108.598 132.532 102.314C127.507 96.0291 124.56 88.339 124.099 80.3071C123.638 72.2752 125.685 64.2986 129.958 57.4807C134.23 50.6628 140.517 45.3407 147.947 42.2506C155.378 39.1605 163.586 38.4551 171.436 40.2321C178.451 27.7244 188.743 17.3636 201.206 10.2627C189.255 3.47088 175.73 -0.0675223 161.982 0.000975934C148.235 0.0694741 134.746 3.74248 122.863 10.6531C110.981 17.5637 101.12 27.4701 94.2658 39.3826C87.4118 51.2951 83.8047 64.7968 83.8047 78.539C83.8047 92.2813 87.4118 105.783 94.2658 117.696C101.12 129.608 110.981 139.514 122.863 146.425C134.746 153.336 148.235 157.009 161.982 157.077C175.73 157.146 189.255 153.607 201.206 146.815C219.205 136.594 232.441 119.686 238.039 99.7644C243.636 79.8428 241.143 58.5179 231.1 40.4237Z" fill="#A177D8"/>
<path d="M240.014 0.00495473C226.403 -0.0135064 213.023 3.52253 201.199 10.2629C188.736 17.3637 178.444 27.7245 171.429 40.2323C164.966 51.7975 161.532 64.808 161.447 78.055C161.362 91.302 164.627 104.356 170.94 116.003C179.636 114.154 187.434 109.378 193.03 102.473C198.626 95.5679 201.683 86.952 201.688 78.0651C201.686 70.3907 203.961 62.8881 208.225 56.5062C212.488 50.1243 218.55 45.1497 225.642 42.2115C232.735 39.2734 240.539 38.5036 248.069 39.9997C255.6 41.4957 262.517 45.1903 267.946 50.6162C273.375 56.0422 277.073 62.9557 278.572 70.4824C280.07 78.0092 279.302 85.8111 276.364 92.9015C273.427 99.9919 268.452 106.052 262.068 110.316C255.685 114.58 248.18 116.856 240.503 116.856C237.493 116.851 234.493 116.501 231.563 115.812C224.542 128.779 214.026 139.519 201.209 146.815C211.667 152.761 223.352 156.226 235.362 156.943C247.372 157.661 259.386 155.611 270.479 150.953C281.571 146.295 291.445 139.153 299.339 130.077C307.234 121.002 312.938 110.235 316.011 98.6072C319.085 86.9795 319.446 74.8015 317.066 63.0123C314.687 51.2231 309.631 40.1375 302.288 30.6105C294.945 21.0834 285.511 13.3692 274.714 8.06288C263.917 2.75652 252.046 -0.000312969 240.014 0.00495473Z" fill="#D6C3F5"/>
<path d="M178.664 234.46C180.62 232.503 183.638 230.493 185.371 229.994C198.237 226.284 212.848 235.634 212.934 247.633C212.963 251.548 197.955 292.286 195.959 293.803C194.829 294.662 189.316 295 176.441 295C158.238 295 155.479 294.703 155.449 292.743C155.44 292.14 157.632 286.261 163.833 269.143C173.813 241.591 175.516 237.609 178.664 234.46Z" fill="#D6C3F5"/>
</g>
</svg>
