<svg width="76" height="69" viewBox="0 0 76 69" fill="none" xmlns="http://www.w3.org/2000/svg">
<path fill-rule="evenodd" clip-rule="evenodd" d="M26.7617 0.0378389C26.7205 0.0765931 26.3321 0.143262 25.8986 0.186026C24.4796 0.326046 22.2581 1.20032 19.7351 2.61151C18.8172 3.12497 16.4393 5.41711 15.6045 6.5931C14.5664 8.05552 13.9459 9.28794 13.3655 11.0403L12.9228 12.3767V33.2387V54.1006L13.2938 54.9915C13.4978 55.4815 13.67 55.966 13.6763 56.0681C13.6827 56.1702 13.7311 56.2537 13.784 56.2537C13.8368 56.2537 14.1949 56.6592 14.5795 57.1547C14.9643 57.6503 15.4136 58.1234 15.5781 58.2059C15.8629 58.3488 15.864 58.3698 15.6022 58.6413C15.4508 58.7981 15.2313 58.9264 15.1142 58.9264C14.997 58.9264 14.9011 58.9764 14.901 59.0377C14.9007 59.0991 12.3788 60.9198 9.29653 63.0839C6.2143 65.2481 3.68591 67.0795 3.67784 67.1537C3.6666 67.2582 4.26696 68.0829 5.02181 68.9994C5.04476 69.0271 6.35059 68.1419 7.92375 67.032L10.7842 65.0142H38.0146H65.2449L66.4271 65.8488C67.0772 66.3079 67.6092 66.7423 67.6092 66.814C67.6092 66.8858 67.6919 66.9445 67.7931 66.9445C67.8942 66.9445 68.6481 67.4177 69.4685 67.9961C70.2887 68.5744 70.978 69.0255 71.0003 68.9983C71.0227 68.9713 71.3372 68.5922 71.6993 68.1561C72.0613 67.72 72.3519 67.2857 72.3448 67.191C72.3378 67.0962 70.8405 65.9831 69.0177 64.7172C67.1948 63.4514 65.4868 62.2319 65.222 62.0074C64.9571 61.7829 64.7067 61.5991 64.6656 61.5991C64.6243 61.5991 63.5958 60.8956 62.3797 60.0355L60.1686 58.4722L60.7269 57.9485C61.034 57.6604 61.4711 57.1612 61.6983 56.8391C61.9254 56.5172 62.1613 56.2537 62.2222 56.2537C62.2831 56.2537 62.3382 56.1702 62.3445 56.0681C62.3509 55.966 62.5052 55.5 62.6875 55.0324C63.018 54.1847 63.019 54.1254 63.019 33.259V12.3357L62.6225 11.0519C61.3304 6.86943 58.2743 3.39862 54.1894 1.47442C53.3343 1.07158 51.0624 0.277937 50.4356 0.163011C49.8656 0.0584782 26.8693 -0.0631301 26.7617 0.0378389ZM49.4067 2.33533C49.7985 2.43021 50.2615 2.56518 50.4356 2.63512C50.6097 2.7052 51.1439 2.87091 51.6227 3.00351C54.3542 3.76003 57.5313 6.32049 59.1254 9.05006C59.8275 10.2526 60.5059 12.0258 60.5683 12.8221C60.5939 13.1488 60.653 13.5163 60.6995 13.6388C60.9594 14.3218 61.0072 16.9706 61.0626 33.7955C61.1033 46.1737 61.0705 52.2446 60.9632 52.2446C60.8751 52.2446 60.803 52.4745 60.803 52.7555C60.803 53.0366 60.7269 53.3106 60.634 53.3645C60.5409 53.4184 60.4998 53.5475 60.5422 53.6516C60.6952 54.0255 59.8404 55.3987 58.9135 56.2682C57.8036 57.3094 56.7216 57.8194 55.1791 58.0285C53.6872 58.2307 22.3337 58.2307 20.8418 58.0285C19.2993 57.8194 18.2173 57.3094 17.1074 56.2682C16.2176 55.4334 15.3812 54.1202 15.3777 53.5526C15.3768 53.4145 15.3049 53.2602 15.2179 53.2097C15.1137 53.1493 15.0605 46.5911 15.0623 34.0094C15.0646 18.2157 15.104 14.6779 15.2899 13.6151C15.5775 11.9696 15.8067 11.1774 16.0658 10.9343C16.1793 10.8279 16.2435 10.6601 16.2084 10.5615C16.125 10.3264 17.2698 8.28611 17.5398 8.18886C17.6546 8.14758 17.7159 8.06413 17.6758 8.0034C17.5391 7.79582 19.3433 5.91379 20.5205 5.0361C21.8049 4.07853 23.9129 3.01657 24.8398 2.85992C25.1629 2.80543 25.4983 2.70891 25.5853 2.64566C25.774 2.50831 27.3554 2.2259 28.3552 2.15076C28.747 2.12136 33.4836 2.11201 38.881 2.12998C45.7159 2.15284 48.9107 2.21506 49.4067 2.33533ZM31.8374 7.00054V8.08343L37.9709 8.07705L44.1043 8.07066L44.1508 6.99416L44.1974 5.91765H38.0174H31.8374V7.00054ZM19.8872 10.9507C19.1019 11.2917 18.4797 11.9013 18.1416 12.6607C17.9124 13.1751 17.8836 14.1788 17.889 21.4213C17.8923 25.9201 17.8982 29.818 17.9018 30.0834L17.9086 30.566H19.0128H20.117L20.1604 22.1646C20.2006 14.3912 20.2243 13.7491 20.4782 13.575C20.6292 13.4715 20.7074 13.3441 20.6518 13.292C20.5963 13.2398 20.8088 13.0961 21.124 12.9726C21.6194 12.7785 23.3971 12.7479 34.2066 12.7479H46.7159V11.7085V10.6691L33.6181 10.6724C21.2069 10.6755 20.4871 10.6901 19.8872 10.9507ZM50.729 10.8889C50.7852 11.0264 50.8313 11.5009 50.8313 11.9434V12.7479H52.5774C53.7525 12.7479 54.505 12.819 54.8782 12.9653C55.9064 13.3683 55.8963 13.2746 55.8963 22.3946V30.566H57.0043H58.1122L58.1088 21.8425C58.1048 11.9776 58.1665 12.4848 56.8321 11.3373L56.1415 10.7434L53.384 10.6911C50.8514 10.6431 50.6352 10.6593 50.729 10.8889ZM66.0263 15.3464V16.46L66.699 16.4618C69.6882 16.4697 72.9923 18.8629 73.3891 21.3077C73.4854 21.9004 73.6038 23.8796 73.6166 25.1092L73.6239 25.8145H74.811H75.9981V23.6781C75.9981 21.8353 75.9433 21.3643 75.5992 20.2503C74.9287 18.0798 73.4963 16.4642 71.269 15.3661C69.9639 14.7229 68.0625 14.2327 66.8716 14.2327H66.0263V15.3464ZM39.6495 17.982C36.8058 20.666 36.0881 21.5084 36.6459 21.5084C36.7369 21.5084 37.1182 21.7909 37.4932 22.1361L38.1749 22.7639L41.4532 19.6885L44.7316 16.6131L43.8693 15.7942C43.3952 15.3437 42.9685 14.9752 42.9211 14.9752C42.8738 14.9752 41.4016 16.3281 39.6495 17.982ZM28.1973 20.3945L23.6886 24.626L24.5964 25.4774L25.504 26.3288L26.6563 25.255C27.2902 24.6643 27.9079 24.1812 28.0292 24.1812C28.1504 24.1812 28.2 24.1345 28.1394 24.0775C27.9928 23.94 30.5783 21.5084 30.8711 21.5084C30.9963 21.5084 31.049 21.4618 30.9884 21.4048C30.8419 21.2673 33.4274 18.8357 33.7202 18.8357C33.8454 18.8357 33.8994 18.7903 33.8402 18.7346C33.7808 18.6791 33.9258 18.4442 34.1621 18.2129L34.5919 17.7919L33.7345 16.9775C33.2629 16.5295 32.8386 16.163 32.7916 16.163C32.7444 16.163 30.6771 18.0672 28.1973 20.3945ZM8.23857 20.3895C6.71495 20.9157 5.48558 21.869 4.40166 23.3645C4.04663 23.8545 3.77676 24.2554 3.80209 24.2554C3.82741 24.2554 3.69572 24.6181 3.50943 25.0615C2.83119 26.6757 2.69443 27.6386 2.69301 30.8072L2.69158 33.8195L1.92677 34.3351C1.35046 34.7235 1.03121 35.0993 0.631861 35.8593C0.113805 36.8453 0.100826 36.9175 0.0509668 39.0625L0 41.2568H1.19851H2.39702L2.40288 40.8485C2.45432 37.2589 2.44767 37.3089 2.96019 36.7047C4.2152 35.2252 6.70529 35.0338 8.12318 36.3078L8.54675 36.6885L9.50451 36.1427C10.0313 35.8426 10.4987 35.5415 10.5435 35.4736C10.6916 35.2487 9.4192 34.178 8.50544 33.7585C7.8416 33.4538 7.26545 33.3218 6.30722 33.255L5.00867 33.1644L4.96293 31.5419C4.93776 30.6496 4.96451 29.8143 5.02228 29.6859C5.08006 29.5575 5.11583 29.1517 5.1019 28.7842C5.04888 27.3988 5.98432 25.0787 7.06539 23.9143C7.72289 23.2062 9.08839 22.4029 9.63842 22.4007C9.97587 22.3994 9.99455 22.3411 9.99455 21.2857V20.1721L9.40099 20.1825C9.07462 20.1883 8.5515 20.2814 8.23857 20.3895ZM32.6322 24.5492L31.2971 25.8082L31.7278 26.2299C31.9646 26.462 32.11 26.6972 32.0507 26.7528C31.9915 26.8084 32.0393 26.8539 32.157 26.8539C32.2748 26.8539 32.5378 27.0009 32.7417 27.1805L33.1124 27.5073L34.4535 26.2558C35.191 25.5676 35.7945 24.9628 35.7945 24.912C35.7945 24.7997 34.1734 23.2903 34.0528 23.2903C34.0058 23.2903 33.3665 23.8569 32.6322 24.5492ZM66.0263 24.8308C66.0263 25.9248 66.0268 25.926 66.4936 26.0134C67.1498 26.1367 68.4292 27.3848 68.9427 28.4029C69.1796 28.8728 69.3333 29.2951 69.2841 29.3411C69.2349 29.3873 69.2831 29.5249 69.3913 29.6471C69.5264 29.7999 69.5877 30.4987 69.5877 31.8881C69.5877 33.5192 69.5345 34.004 69.3107 34.4123C69.1584 34.6903 69.0334 35.0243 69.0331 35.1547C69.0326 35.2851 68.8191 35.6924 68.5584 36.0599C68.1818 36.5907 68.1269 36.7586 68.2915 36.8765C68.4055 36.9582 68.8338 37.2844 69.2433 37.6013L69.9877 38.1777L70.3416 37.8194C70.5364 37.6222 70.7053 37.4096 70.7172 37.3468C70.729 37.284 70.929 36.8351 71.1613 36.3493C71.6555 35.3166 71.9147 35.2454 72.6242 35.9485C73.2801 36.5986 73.4065 36.8878 73.4388 37.8114C73.4825 39.0643 72.5998 40.2088 71.5474 40.2637L71.0122 40.2916L71.0643 41.3682L71.1164 42.4447H71.8669C72.8836 42.4447 74.1848 41.8141 74.8308 41.0082C75.4452 40.2421 75.9975 38.7501 76 37.85C76.0009 37.4779 75.8118 36.6591 75.5796 36.0303C75.0707 34.6522 74.4085 33.9781 73.0556 33.4615C72.1518 33.1165 72.1196 33.0853 72.1033 32.5405C72.0403 30.451 71.9784 29.4336 71.9065 29.3104C71.8611 29.2324 71.6352 28.6574 71.4046 28.0325C70.4942 25.5661 68.3969 23.7357 66.4812 23.7357H66.0263V24.8308ZM17.8754 34.0925C17.8411 34.562 17.8422 35.0298 17.8778 35.1318C17.9291 35.279 22.0996 35.3174 38.0274 35.3174H58.1122V34.2781V33.2387H38.0252H17.9379L17.8754 34.0925ZM22.8154 40.364C19.9297 40.8701 17.7808 43.4005 17.8953 46.1568C17.9837 48.278 18.0528 48.4746 19.1974 49.8629C20.4348 51.3636 22.1137 52.0183 24.4767 51.9213C25.7387 51.8697 26.0795 51.7945 27.0181 51.361C28.1052 50.8589 28.5311 50.496 29.3489 49.3751C30.2983 48.0738 30.5687 45.7569 29.9583 44.1522C29.772 43.6622 29.6022 43.1984 29.581 43.1213C29.5598 43.0444 29.1332 42.5905 28.6332 42.1127C27.7856 41.3028 26.4002 40.5193 25.8096 40.5159C25.6717 40.515 25.5055 40.4643 25.4403 40.403C25.2896 40.2618 23.5459 40.2358 22.8154 40.364ZM50.3564 40.3755C50.2259 40.4421 49.7102 40.6636 49.2106 40.8676C48.3926 41.2019 46.5575 42.6947 46.4399 43.1213C46.4187 43.1984 46.2512 43.6622 46.0678 44.1522C45.7932 44.8854 45.7455 45.2927 45.7985 46.4537C45.8722 48.0623 46.192 48.8994 47.1542 50.0023C47.479 50.3746 47.7269 50.7307 47.7052 50.7938C47.6834 50.8567 47.7459 50.9082 47.844 50.9082C47.9422 50.9082 48.487 51.1228 49.0547 51.3849C50.9095 52.2415 53.7638 52.1263 55.326 51.1319C55.6516 50.9244 56.0022 50.8001 56.1051 50.8554C56.2078 50.9106 56.2434 50.9051 56.1841 50.8432C56.1249 50.7813 56.3741 50.3746 56.738 49.9394C58.0518 48.369 58.0589 48.3488 58.0453 46.2965C58.0342 44.6151 57.995 44.3727 57.6076 43.5975C57.0277 42.4366 55.8232 41.3422 54.5069 40.78C53.6083 40.3962 53.2215 40.32 52.0184 40.29C51.2349 40.2704 50.487 40.309 50.3564 40.3755ZM24.873 42.7416C24.873 42.8233 25.0883 42.8901 25.3514 42.8901C25.8922 42.8901 27.1034 43.8317 27.5089 44.5672C27.8411 45.1702 27.9518 46.6177 27.7166 47.2863C27.4622 48.0092 26.3837 49.1005 25.5853 49.4426C24.8058 49.7766 23.48 49.7985 22.6916 49.4904C21.9152 49.187 20.9502 48.3064 20.5841 47.5674C20.2226 46.8376 20.1969 45.5983 20.5281 44.8528C20.8514 44.1245 21.7902 43.2192 22.578 42.8757C23.2499 42.5828 24.873 42.488 24.873 42.7416ZM53.3902 42.8741C54.2166 43.2126 55.1578 44.0982 55.4928 44.8528C55.8024 45.5501 55.808 46.7517 55.5045 47.433C55.1836 48.1537 54.2043 49.1059 53.4429 49.4378C53.0678 49.6014 52.4551 49.7138 51.9392 49.7138C51.4234 49.7138 50.8107 49.6014 50.4356 49.4378C49.6742 49.1059 48.6949 48.1537 48.374 47.433C48.0561 46.7191 48.0852 45.4679 48.4366 44.7462C48.8113 43.9766 50.0666 42.8901 50.581 42.8901C50.7953 42.8901 51.0149 42.8233 51.0687 42.7416C51.2319 42.4938 52.6609 42.5753 53.3902 42.8741ZM23.5772 42.843C23.6913 42.886 23.8279 42.8806 23.8805 42.8313C23.933 42.782 23.8396 42.747 23.6728 42.7534C23.4884 42.7605 23.4509 42.7957 23.5772 42.843ZM33.1037 43.781V44.8204H38.0104H42.9172V43.781V42.7416H38.0104H33.1037V43.781ZM52.0679 42.843C52.1821 42.886 52.3187 42.8806 52.3712 42.8313C52.4238 42.782 52.3304 42.747 52.1635 42.7534C51.9791 42.7605 51.9416 42.7957 52.0679 42.843ZM33.1037 48.5325V49.5719H38.0104H42.9172V48.5325V47.4931H38.0104H33.1037V48.5325ZM4.39723 60.0479C2.60073 61.318 1.13077 62.4245 1.13077 62.5068C1.13077 62.589 1.37895 62.9611 1.68206 63.3337C1.98533 63.7062 2.19489 64.0697 2.14757 64.1414C2.1004 64.2131 2.18556 64.2718 2.33672 64.2718C2.48803 64.2718 3.44865 63.6704 4.47162 62.9354C5.4946 62.2004 6.44761 61.5991 6.58959 61.5991C6.73141 61.5991 6.81071 61.5431 6.7656 61.4746C6.72049 61.4062 7.25058 60.9591 7.94338 60.481C8.63633 60.0029 9.20314 59.5861 9.20314 59.5548C9.20314 59.4792 7.77386 57.7385 7.71197 57.7385C7.68538 57.7385 6.19373 58.7777 4.39723 60.0479ZM67.5411 58.6159C67.1433 59.1008 66.8177 59.5234 66.8177 59.5548C66.8177 59.5861 67.3846 60.0029 68.0775 60.481C68.7703 60.9591 69.3004 61.4062 69.2553 61.4746C69.2102 61.5431 69.2895 61.5991 69.4313 61.5991C69.5733 61.5991 70.5263 62.2004 71.5493 62.9354C73.3037 64.1959 73.7821 64.4534 73.7821 64.1367C73.7821 64.0623 74.0652 63.6657 74.4108 63.2553L75.0397 62.509L74.0547 61.781C72.8899 60.9199 68.7198 57.9845 68.4512 57.8366C68.3369 57.7737 67.9843 58.0756 67.5411 58.6159ZM19.1749 60.04C20.5108 60.3763 55.483 60.3713 56.8685 60.0345C57.3846 59.909 57.8935 59.8547 57.9992 59.9139C58.8593 60.3953 61.8999 62.6836 61.8268 62.7945C61.7019 62.9841 14.3202 62.9862 14.1954 62.7966C14.1048 62.6591 17.8414 59.856 18.1461 59.8329C18.2331 59.8262 18.6961 59.9194 19.1749 60.04Z" fill="#5F249F"/>
</svg>
