<svg width="24" height="25" viewBox="0 0 24 25" fill="none" xmlns="http://www.w3.org/2000/svg">
<path d="M19.3259 6.27772C20 7.28661 20 8.69108 20 11.5C20 14.3089 20 15.7134 19.3259 16.7223C19.034 17.159 18.659 17.534 18.2223 17.8259C17.3409 18.4148 16.1577 18.4892 14 18.4986V18.5L12.8944 20.7111C12.5259 21.4482 11.4741 21.4482 11.1056 20.7111L10 18.5V18.4986C7.8423 18.4892 6.65907 18.4148 5.77772 17.8259C5.34096 17.534 4.96596 17.159 4.67412 16.7223C4 15.7134 4 14.3089 4 11.5C4 8.69108 4 7.28661 4.67412 6.27772C4.96596 5.84096 5.34096 5.46596 5.77772 5.17412C6.78661 4.5 8.19108 4.5 11 4.5H13C15.8089 4.5 17.2134 4.5 18.2223 5.17412C18.659 5.46596 19.034 5.84096 19.3259 6.27772Z" stroke="#828699" stroke-linecap="round" stroke-linejoin="round"/>
<path d="M9 9.5L15 9.5" stroke="#828699" stroke-linecap="round" stroke-linejoin="round"/>
<path d="M9 13.5H12" stroke="#828699" stroke-linecap="round" stroke-linejoin="round"/>
</svg>
