<svg width="21" height="21" viewBox="0 0 21 21" fill="none" xmlns="http://www.w3.org/2000/svg">
<path d="M5.83203 10.6445L5.46345 10.9824L5.15375 10.6445L5.46345 10.3067L5.83203 10.6445ZM9.13012 14.9824L5.46345 10.9824L6.20061 10.3067L9.86727 14.3067L9.13012 14.9824ZM5.46345 10.3067L9.13012 6.30667L9.86727 6.9824L6.20061 10.9824L5.46345 10.3067Z" fill="#D8DAE6"/>
<path d="M10.832 10.6445L10.4635 10.9824L10.1537 10.6445L10.4635 10.3067L10.832 10.6445ZM14.1301 14.9824L10.4635 10.9824L11.2006 10.3067L14.8673 14.3067L14.1301 14.9824ZM10.4635 10.3067L14.1301 6.30667L14.8673 6.9824L11.2006 10.9824L10.4635 10.3067Z" fill="#D8DAE6"/>
<rect x="1" y="1.14453" width="19" height="19" rx="9.5" stroke="#D8DAE6"/>
</svg>
