<svg width="21" height="21" viewBox="0 0 21 21" fill="none" xmlns="http://www.w3.org/2000/svg">
<path d="M15.168 10.6445L15.5365 10.9824L15.8463 10.6445L15.5365 10.3067L15.168 10.6445ZM11.8699 14.9824L15.5365 10.9824L14.7994 10.3067L11.1327 14.3067L11.8699 14.9824ZM15.5365 10.3067L11.8699 6.30667L11.1327 6.98239L14.7994 10.9824L15.5365 10.3067Z" fill="#D8DAE6"/>
<path d="M10.168 10.6445L10.5365 10.9824L10.8463 10.6445L10.5365 10.3067L10.168 10.6445ZM6.86988 14.9824L10.5365 10.9824L9.79939 10.3067L6.13273 14.3067L6.86988 14.9824ZM10.5365 10.3067L6.86988 6.30667L6.13273 6.98239L9.79939 10.9824L10.5365 10.3067Z" fill="#D8DAE6"/>
<rect x="1" y="1.14453" width="19" height="19" rx="9.5" stroke="#D8DAE6"/>
</svg>
