<svg width="24" height="24" viewBox="0 0 24 24" fill="none" xmlns="http://www.w3.org/2000/svg">
<path d="M4.5 9C4.5 8.04306 4.50106 7.37565 4.56876 6.87208C4.63453 6.3829 4.75483 6.12385 4.93934 5.93934C5.12385 5.75483 5.3829 5.63453 5.87208 5.56876C6.37565 5.50106 7.04306 5.5 8 5.5H8.34315C9.20144 5.5 9.49131 5.50885 9.7456 5.61418C9.99989 5.71951 10.2111 5.91822 10.818 6.52513L11.4749 7.18198C11.4976 7.20469 11.52 7.2271 11.5421 7.24923C12.0546 7.76225 12.4108 8.11878 12.8717 8.3097C13.3326 8.50062 13.8366 8.50038 14.5618 8.50003C14.5931 8.50002 14.6247 8.5 14.6569 8.5H16C16.9569 8.5 17.6244 8.50106 18.1279 8.56876C18.6171 8.63453 18.8762 8.75483 19.0607 8.93934C19.2452 9.12385 19.3655 9.3829 19.4312 9.87208C19.4989 10.3756 19.5 11.0431 19.5 12V15C19.5 15.9569 19.4989 16.6244 19.4312 17.1279C19.3655 17.6171 19.2452 17.8762 19.0607 18.0607C18.8762 18.2452 18.6171 18.3655 18.1279 18.4312C17.6244 18.4989 16.9569 18.5 16 18.5H8C7.04306 18.5 6.37565 18.4989 5.87208 18.4312C5.3829 18.3655 5.12385 18.2452 4.93934 18.0607L4.59441 18.4056L4.93934 18.0607C4.75483 17.8762 4.63453 17.6171 4.56876 17.1279C4.50106 16.6244 4.5 15.9569 4.5 15V9Z" stroke="#828699"/>
</svg>
