<svg width="90" height="90" viewBox="0 0 90 90" fill="none" xmlns="http://www.w3.org/2000/svg">
<path d="M30.7638 76.9443L24.0273 82.9953" stroke="#5F249F" stroke-width="2" stroke-miterlimit="10"/>
<path d="M5.11719 78.7781L8.15619 74.6831C9.15969 73.3646 11.0422 73.1096 12.3607 74.1131L25.8172 84.3566C27.1357 85.3601 27.3907 87.2426 26.3872 88.5611" stroke="#5F249F" stroke-width="2" stroke-miterlimit="10"/>
<path d="M36 71.2376V73.4996C36 75.5711 34.3215 77.2496 32.25 77.2496C30.1785 77.2496 28.5 75.5711 28.5 73.4996V54.6416" stroke="#5F249F" stroke-width="2" stroke-miterlimit="10"/>
<path d="M36 51.1143V57.7623" stroke="#5F249F" stroke-width="2" stroke-miterlimit="10"/>
<path d="M40.5 63C40.5 67.1415 39.5715 72 37.5 72C35.4285 72 34.5 68.6415 34.5 64.5C34.5 60.3585 35.4285 57 37.5 57C39.5715 57 40.5 58.8585 40.5 63Z" stroke="#5F249F" stroke-width="2" stroke-miterlimit="10"/>
<path d="M13.9961 75.357C13.9961 75.357 15.0956 67.125 17.3261 61.3455C17.7791 60.171 18.3806 59.127 19.0391 58.0755C20.8601 55.167 22.9436 51.951 24.2246 49.869C24.8411 48.8595 25.7441 48 27.0011 48C28.6586 48 30.0011 49.3425 30.0011 51C30.0011 51.3315 29.9951 51.672 29.8481 51.9495C28.6781 54.159 25.5011 60.9375 25.5011 60.9375C25.5011 60.9375 25.5011 65.187 21.7511 68.3745" stroke="#5F249F" stroke-width="2" stroke-miterlimit="10"/>
<path d="M23.7885 50.565C18.72 49.161 15 44.5155 15 39C15 32.373 20.373 27 27 27C46.1955 27 51.651 26.2995 59.0175 21.366C59.307 21.1725 59.6235 21 60 21C60.828 21 61.5 21.672 61.5 22.5V55.5C61.5 56.328 60.828 57 60 57C59.592 57 59.2605 56.7915 58.9515 56.574C54.3495 53.3115 48.534 51.222 29.9985 50.943" stroke="#5F249F" stroke-width="2" stroke-miterlimit="10"/>
<path d="M61.5 31.5C65.6415 31.5 69 34.8585 69 39C69 43.1415 65.6415 46.5 61.5 46.5" stroke="#5F249F" stroke-width="2" stroke-miterlimit="10"/>
<path d="M55.5 23.457V39" stroke="#5F249F" stroke-width="2" stroke-miterlimit="10"/>
<path d="M55.5 42V45" stroke="#5F249F" stroke-width="2" stroke-miterlimit="10"/>
<path d="M55.5 48V54.543" stroke="#5F249F" stroke-width="2" stroke-miterlimit="10"/>
<path d="M27 27V48" stroke="#5F249F" stroke-width="2" stroke-miterlimit="10"/>
<path d="M58.5 1.5H55.5V4.5H58.5V1.5Z" fill="#5F249F"/>
<path d="M67.5 4.5H64.5V7.5H67.5V4.5Z" fill="#5F249F"/>
<path d="M85.5 28.5H82.5V31.5H85.5V28.5Z" fill="#5F249F"/>
<path d="M82.5 19.5H79.5V22.5H82.5V19.5Z" fill="#5F249F"/>
<path d="M76.5 10.5H73.5V13.5H76.5V10.5Z" fill="#5F249F"/>
<path d="M49.5 0H46.5V3H49.5V0Z" fill="#5F249F"/>
<path d="M40.5 1.5H37.5V4.5H40.5V1.5Z" fill="#5F249F"/>
<path d="M31.5 4.5H28.5V7.5H31.5V4.5Z" fill="#5F249F"/>
<path d="M49.5 75H46.5V78H49.5V75Z" fill="#5F249F"/>
<path d="M87 37.5H84V40.5H87V37.5Z" fill="#5F249F"/>
<path d="M85.5 46.5H82.5V49.5H85.5V46.5Z" fill="#5F249F"/>
<path d="M82.5 55.5H79.5V58.5H82.5V55.5Z" fill="#5F249F"/>
<path d="M58.5 73.5H55.5V76.5H58.5V73.5Z" fill="#5F249F"/>
<path d="M67.5 70.5H64.5V73.5H67.5V70.5Z" fill="#5F249F"/>
<path d="M76.5 64.5H73.5V67.5H76.5V64.5Z" fill="#5F249F"/>
<path d="M16.5 19.5H13.5V22.5H16.5V19.5Z" fill="#5F249F"/>
<path d="M22.5 10.5H19.5V13.5H22.5V10.5Z" fill="#5F249F"/>
</svg>
