<svg width="80" height="86" viewBox="0 0 80 86" fill="none" xmlns="http://www.w3.org/2000/svg">
<path d="M62.9341 40.1338H60.0703" stroke="#5F249F" stroke-width="2" stroke-miterlimit="10"/>
<path d="M62.9344 34.4004H75.8344C76.6256 34.4004 77.2677 35.0425 77.2677 35.8337V38.7004C77.2677 39.4916 76.6256 40.1337 75.8344 40.1337H71.5344C71.5344 40.1337 78.701 51.6004 78.701 63.0671C78.701 74.5337 77.2677 78.8337 75.8344 84.5671H62.9344C62.1432 84.5671 61.501 83.9249 61.501 83.1337V80.2671C61.501 79.4759 62.1432 78.8337 62.9344 78.8337H71.5071C72.3184 75.0798 72.9677 70.4631 72.9677 63.0671C72.9677 56.673 69.7871 49.674 67.726 45.8728L50.3726 45.8671C49.2876 45.8671 48.2943 45.2536 47.8098 44.2818L45.7344 40.1337" stroke="#5F249F" stroke-width="2" stroke-miterlimit="10"/>
<path d="M57.1952 40.1337H38.5661C37.7749 40.1337 37.1328 39.4916 37.1328 38.7004V35.8337C37.1328 35.0425 37.7749 34.4004 38.5661 34.4004H65.7966" stroke="#5F249F" stroke-width="2" stroke-miterlimit="10"/>
<path d="M54.3346 34.3997H51.468C49.0929 34.3997 47.168 32.4748 47.168 30.0997V21.4997C47.168 20.7085 47.8101 20.0664 48.6013 20.0664H57.2013C57.9925 20.0664 58.6346 20.7085 58.6346 21.4997V30.0997C58.6346 32.4748 56.7097 34.3997 54.3346 34.3997Z" stroke="#5F249F" stroke-width="2" stroke-miterlimit="10"/>
<path d="M47.1669 28.6669H42.8669C42.0757 28.6669 41.4336 28.0248 41.4336 27.2336V24.3669C41.4336 23.5757 42.0757 22.9336 42.8669 22.9336H47.1669" stroke="#5F249F" stroke-width="2" stroke-miterlimit="10"/>
<path d="M55.0523 14.9607C55.0523 14.9607 52.9023 12.4524 52.9023 8.59957C52.9023 7.16624 53.8469 4.97754 53.8469 4.97754" stroke="#5F249F" stroke-width="2" stroke-miterlimit="10"/>
<path d="M47.8844 14.9611C47.8844 14.9611 45.7344 12.4528 45.7344 8.6C45.7344 5.73333 48.601 2.86667 48.601 0" stroke="#5F249F" stroke-width="2" stroke-miterlimit="10"/>
<path d="M9.90078 84.5664C9.10958 84.5664 8.46745 83.9243 8.46745 83.1331C8.46745 83.0026 8.48465 82.8765 8.51761 82.7561L12.3231 68.7997C7.03411 68.7997 1.30078 57.8906 1.30078 44.4331C1.30078 27.4395 7.03411 20.0664 15.6341 20.0664C19.9341 20.0664 19.9341 24.3664 19.9341 25.7997C19.9341 31.1303 17.0674 34.6807 17.0674 42.9997C17.0674 44.5836 17.0674 51.5997 22.8008 51.5997H34.3104C36.6611 51.5997 38.5674 53.5061 38.5674 55.8567V60.1997H47.1674V65.9331C47.1674 67.5169 45.8846 68.7997 44.3008 68.7997H18.1625L14.1506 83.51C13.9843 84.1192 13.4282 84.5664 12.7674 84.5664H9.90078Z" stroke="#5F249F" stroke-width="2" stroke-miterlimit="10"/>
<path d="M38.9062 68.7998L42.9182 83.5101C43.0844 84.1193 43.6406 84.5665 44.3013 84.5665H47.168C47.9592 84.5665 48.6013 83.9243 48.6013 83.1331C48.6013 83.0027 48.5841 82.8766 48.5512 82.7562L44.7457 68.7998" stroke="#5F249F" stroke-width="2" stroke-miterlimit="10"/>
<path d="M9.74609 31.0564C10.3438 29.7191 11.0332 28.5567 11.8058 27.5605" stroke="#5F249F" stroke-width="2" stroke-miterlimit="10"/>
<path d="M7.16797 43.0003C7.16797 40.1336 7.81584 37.0634 8.46657 34.6826" stroke="#5F249F" stroke-width="2" stroke-miterlimit="10"/>
<path d="M41.4336 51.5996H42.8669H42.9099C45.2606 51.5996 47.1669 53.5059 47.1669 55.8566V60.1996" stroke="#5F249F" stroke-width="2" stroke-miterlimit="10"/>
</svg>
