<svg width="25" height="25" viewBox="0 0 25 25" fill="none" xmlns="http://www.w3.org/2000/svg">
<path d="M21.5 3.5V2.75H22.25V3.5H21.5ZM12.0303 14.0303C11.7374 14.3232 11.2626 14.3232 10.9697 14.0303C10.6768 13.7374 10.6768 13.2626 10.9697 12.9697L12.0303 14.0303ZM20.75 11.5V3.5H22.25V11.5H20.75ZM21.5 4.25H13.5V2.75H21.5V4.25ZM22.0303 4.03033L12.0303 14.0303L10.9697 12.9697L20.9697 2.96967L22.0303 4.03033Z" fill="white"/>
<path d="M20.5 15.5V15.5C20.5 17.3692 20.5 18.3038 20.0981 19C19.8348 19.4561 19.4561 19.8348 19 20.0981C18.3038 20.5 17.3692 20.5 15.5 20.5H10.5C7.67157 20.5 6.25736 20.5 5.37868 19.6213C4.5 18.7426 4.5 17.3284 4.5 14.5V9.5C4.5 7.63077 4.5 6.69615 4.90192 6C5.16523 5.54394 5.54394 5.16523 6 4.90192C6.69615 4.5 7.63077 4.5 9.5 4.5V4.5" stroke="white" stroke-width="1.5" stroke-linecap="round"/>
</svg>
