<svg width="24" height="25" viewBox="0 0 24 25" fill="none" xmlns="http://www.w3.org/2000/svg">
<path d="M4 13.1074C4 11.2218 4 10.279 4.58579 9.69321C5.17157 9.10742 6.11438 9.10742 8 9.10742H16C17.8856 9.10742 18.8284 9.10742 19.4142 9.69321C20 10.279 20 11.2218 20 13.1074V15.1074C20 17.9358 20 19.3501 19.1213 20.2287C18.2426 21.1074 16.8284 21.1074 14 21.1074H10C7.17157 21.1074 5.75736 21.1074 4.87868 20.2287C4 19.3501 4 17.9358 4 15.1074V13.1074Z" stroke="#D8DAE6"/>
<path d="M16 8.10742V7.10742C16 4.89828 14.2091 3.10742 12 3.10742V3.10742C9.79086 3.10742 8 4.89828 8 7.10742V8.10742" stroke="#D8DAE6" stroke-linecap="round"/>
<circle cx="12" cy="15.1074" r="2" fill="#D8DAE6"/>
</svg>
