<svg width="103" height="103" viewBox="0 0 103 103" fill="none" xmlns="http://www.w3.org/2000/svg">
<path d="M78.9651 48.0664H75.5352" stroke="white" stroke-width="2.5" stroke-miterlimit="10"/>
<path d="M78.9633 41.1992H94.4133C95.3609 41.1992 96.1299 41.9683 96.1299 42.9159V46.3492C96.1299 47.2968 95.3609 48.0659 94.4133 48.0659H89.2633C89.2633 48.0659 97.8466 61.7992 97.8466 75.5326C97.8466 89.2659 96.1299 94.4159 94.4133 101.283H78.9633C78.0157 101.283 77.2466 100.513 77.2466 99.5659V96.1325C77.2466 95.1849 78.0157 94.4159 78.9633 94.4159H89.2307C90.2023 89.9199 90.9799 84.3905 90.9799 75.5326C90.9799 67.8745 87.1707 59.492 84.7021 54.9394L63.9184 54.9326C62.6189 54.9326 61.4293 54.1978 60.849 53.0339L58.3633 48.0659" stroke="white" stroke-width="2.5" stroke-miterlimit="10"/>
<path d="M72.0946 48.0659H49.7831C48.8355 48.0659 48.0664 47.2968 48.0664 46.3492V42.9159C48.0664 41.9683 48.8355 41.1992 49.7831 41.1992H82.3963" stroke="white" stroke-width="2.5" stroke-miterlimit="10"/>
<path d="M68.6654 41.1999H65.232C62.3875 41.1999 60.082 38.8944 60.082 36.0499V25.7499C60.082 24.8023 60.8511 24.0332 61.7987 24.0332H72.0987C73.0463 24.0332 73.8154 24.8023 73.8154 25.7499V36.0499C73.8154 38.8944 71.5099 41.1999 68.6654 41.1999Z" stroke="white" stroke-width="2.5" stroke-miterlimit="10"/>
<path d="M60.0815 34.3335H54.9315C53.9839 34.3335 53.2148 33.5644 53.2148 32.6168V29.1835C53.2148 28.2359 53.9839 27.4668 54.9315 27.4668H60.0815" stroke="white" stroke-width="2.5" stroke-miterlimit="10"/>
<path d="M69.5242 17.9195C69.5242 17.9195 66.9492 14.9153 66.9492 10.3009C66.9492 8.58424 68.0805 5.96289 68.0805 5.96289" stroke="white" stroke-width="2.5" stroke-miterlimit="10"/>
<path d="M60.9383 17.9186C60.9383 17.9186 58.3633 14.9144 58.3633 10.3C58.3633 6.86667 61.7966 3.43333 61.7966 0" stroke="white" stroke-width="2.5" stroke-miterlimit="10"/>
<path d="M15.4484 101.283C14.5008 101.283 13.7318 100.514 13.7318 99.5665C13.7318 99.4103 13.7524 99.2593 13.7919 99.1151L18.3496 82.3999C12.0151 82.3999 5.14844 69.3343 5.14844 53.2165C5.14844 32.8637 12.0151 24.0332 22.3151 24.0332C27.4651 24.0332 27.4651 29.1832 27.4651 30.8999C27.4651 37.2842 24.0318 41.5363 24.0318 51.4999C24.0318 53.3968 24.0318 61.7999 30.8984 61.7999H44.6833C47.4986 61.7999 49.7818 64.083 49.7818 66.8984V72.0999H60.0818V78.9665C60.0818 80.8635 58.5454 82.3999 56.6484 82.3999H25.3433L20.5384 100.018C20.3392 100.748 19.6732 101.283 18.8818 101.283H15.4484Z" stroke="white" stroke-width="2.5" stroke-miterlimit="10"/>
<path d="M50.1875 82.4004L54.9925 100.019C55.1916 100.748 55.8577 101.284 56.649 101.284H60.0824C61.03 101.284 61.799 100.515 61.799 99.5671C61.799 99.4108 61.7784 99.2598 61.739 99.1156L57.1812 82.4004" stroke="white" stroke-width="2.5" stroke-miterlimit="10"/>
<path d="M15.2617 37.1948C15.9776 35.5931 16.8033 34.2009 17.7286 33.0078" stroke="white" stroke-width="2.5" stroke-miterlimit="10"/>
<path d="M12.1758 51.5009C12.1758 48.0675 12.9517 44.3904 13.7311 41.5391" stroke="white" stroke-width="2.5" stroke-miterlimit="10"/>
<path d="M53.2148 61.8008H54.9315H54.983C57.7983 61.8008 60.0815 64.0839 60.0815 66.8993V72.1008" stroke="white" stroke-width="2.5" stroke-miterlimit="10"/>
</svg>
