<svg width="100" height="100" viewBox="0 0 100 100" fill="none" xmlns="http://www.w3.org/2000/svg">
<path d="M31.668 38.5883V10C31.668 7.23833 33.9063 5 36.668 5H86.668C89.4296 5 91.668 7.23833 91.668 10V53.3333" stroke="#A177D8" stroke-width="3" stroke-miterlimit="10"/>
<path d="M41.668 61.6673H36.668C33.9063 61.6673 31.668 59.429 31.668 56.6673V43.334" stroke="#A177D8" stroke-width="3" stroke-miterlimit="10"/>
<path d="M86.6654 10H83.332V13.3333H86.6654V10Z" fill="#A177D8"/>
<path d="M80.0013 10H76.668V13.3333H80.0013V10Z" fill="#A177D8"/>
<path d="M73.3333 10H70V13.3333H73.3333V10Z" fill="#A177D8"/>
<path d="M34.9987 81.6673C46.9649 81.6673 56.6654 71.9668 56.6654 60.0007C56.6654 48.0345 46.9649 38.334 34.9987 38.334C23.0325 38.334 13.332 48.0345 13.332 60.0007C13.332 71.9668 23.0325 81.6673 34.9987 81.6673Z" stroke="#A177D8" stroke-width="3" stroke-miterlimit="10"/>
<path d="M11.6654 81.666H8.33203V84.9994H11.6654V81.666Z" fill="#A177D8"/>
<path d="M15.9804 70.3809L5.96703 78.0559C4.37536 79.2742 3.33203 81.1742 3.33203 83.3342C3.33203 87.0159 6.31703 90.0009 9.9987 90.0009C11.9937 90.0009 13.762 89.1075 14.9837 87.7192L23.3337 78.2559" stroke="#A177D8" stroke-width="3" stroke-miterlimit="10"/>
<path d="M56.6016 58.334H93.3316C94.2516 58.334 94.9982 59.079 94.9982 60.0007V78.334" stroke="#A177D8" stroke-width="3" stroke-miterlimit="10"/>
<path d="M41.6641 73.334V60.0007C41.6641 59.079 42.4107 58.334 43.3307 58.334H51.6641" stroke="#A177D8" stroke-width="3" stroke-miterlimit="10"/>
<path d="M94.9974 88.3347V93.3347C94.9974 94.2564 94.2507 95.0014 93.3307 95.0014H53.9474C53.5491 95.0014 53.1657 94.858 52.8624 94.6014L42.2457 85.4997C41.8757 85.183 41.6641 84.7214 41.6641 84.2347V80.623" stroke="#A177D8" stroke-width="3" stroke-miterlimit="10"/>
<path d="M95 81.668V85.0013" stroke="#A177D8" stroke-width="3" stroke-miterlimit="10"/>
<path d="M41.8516 85H51.6616C52.5816 85 53.3316 85.7467 53.3316 86.6667V94.8817" stroke="#A177D8" stroke-width="3" stroke-miterlimit="10"/>
</svg>
