<svg width="106" height="80" viewBox="0 0 106 80" fill="none" xmlns="http://www.w3.org/2000/svg">
<path d="M68.6905 78.4995H9.84435C8.76158 78.4995 7.88281 77.6208 7.88281 76.538V9.8457" stroke="#5F249F" stroke-width="3" stroke-miterlimit="10"/>
<path d="M98.1163 9.8457V76.538C98.1163 77.6208 97.2375 78.4995 96.1547 78.4995H88.3086" stroke="#5F249F" stroke-width="3" stroke-miterlimit="10"/>
<path d="M94.1923 2H102.038C103.121 2 104 2.87877 104 3.96154V7.88462C104 8.96738 103.121 9.84615 102.038 9.84615H3.96154C2.87877 9.84615 2 8.96738 2 7.88462V3.96154C2 2.87877 2.87877 2 3.96154 2H74.5769" stroke="#5F249F" stroke-width="3" stroke-miterlimit="10"/>
<path d="M84.384 78.5H80.4609" stroke="#5F249F" stroke-width="3" stroke-miterlimit="10"/>
<path d="M76.5403 78.5H72.6172" stroke="#5F249F" stroke-width="3" stroke-miterlimit="10"/>
<path d="M90.2707 2H86.3477" stroke="#5F249F" stroke-width="3" stroke-miterlimit="10"/>
<path d="M82.4231 2H78.5" stroke="#5F249F" stroke-width="3" stroke-miterlimit="10"/>
<path d="M33.3843 70.6534C43.1343 70.6534 51.0382 62.7495 51.0382 52.9995C51.0382 43.2496 43.1343 35.3457 33.3843 35.3457C23.6344 35.3457 15.7305 43.2496 15.7305 52.9995C15.7305 62.7495 23.6344 70.6534 33.3843 70.6534Z" stroke="#5F249F" stroke-width="3" stroke-miterlimit="10"/>
<path d="M33.3843 35.3457V52.9996H15.7305" stroke="#5F249F" stroke-width="3" stroke-miterlimit="10"/>
<path d="M33.3828 53L45.866 65.4832" stroke="#5F249F" stroke-width="3" stroke-miterlimit="10"/>
<path d="M13.7695 17.6914H31.4234" stroke="#5F249F" stroke-width="3" stroke-miterlimit="10"/>
<path d="M13.7695 25.5391H39.2695" stroke="#5F249F" stroke-width="3" stroke-miterlimit="10"/>
<path d="M74.5781 62.8086H92.232" stroke="#5F249F" stroke-width="3" stroke-miterlimit="10"/>
<path d="M66.7305 70.6543H92.2305" stroke="#5F249F" stroke-width="3" stroke-miterlimit="10"/>
<path d="M58.8828 54.962H70.652L80.4597 45.1543H92.229" stroke="#5F249F" stroke-width="3" stroke-miterlimit="10"/>
<path d="M66.7305 39.2698V25.5391H74.5766V39.2698" stroke="#5F249F" stroke-width="3" stroke-miterlimit="10"/>
<path d="M82.4219 39.2683V17.6914H90.268V39.2683" stroke="#5F249F" stroke-width="3" stroke-miterlimit="10"/>
</svg>
