<svg width="100" height="102" viewBox="0 0 100 102" fill="none" xmlns="http://www.w3.org/2000/svg">
<path d="M43.6054 90.0685C43.6054 90.0685 52.2102 92.6436 59.0009 89.8071C71.6166 84.5263 72.7433 83.0972 83.2274 76.5441C89.9963 72.309 104.752 72.4354 89.9006 82.2083C78.2681 89.8812 63.7992 101.001 53.4109 101.001C36.0099 101.001 31.8381 93.8897 18.261 93.8897L3.03516 94.0597" stroke="white" stroke-width="2" stroke-linecap="round" stroke-linejoin="round"/>
<path d="M6.60156 74.8759C17.7469 74.2747 25.4511 73.168 28.84 73.168C40.2724 73.168 44.3051 80.9454 52.7141 80.9454C61.1231 80.9454 67.3569 77.024 70.0889 79.4727C71.8942 81.0979 71.916 83.6555 71.916 83.6555" stroke="white" stroke-width="2" stroke-linecap="round" stroke-linejoin="round"/>
<path d="M70.293 79.6685C70.293 79.6685 84.1137 64.9849 87.1501 67.8257C90.0213 70.5054 81.3469 77.7252 81.3469 77.7252" stroke="white" stroke-width="2" stroke-linecap="round" stroke-linejoin="round"/>
<path d="M65.2695 78.9234C65.2695 78.9234 75.0358 64.6887 78.3985 68.1004C79.8428 69.5643 77.6634 72.6143 77.6634 72.6143" stroke="white" stroke-width="2" stroke-linecap="round" stroke-linejoin="round"/>
<path d="M69.7406 73.168C69.7406 73.168 70.2931 70.5538 68.9054 69.6257C66.1604 67.7478 58.4648 80.3965 58.4648 80.3965" stroke="white" stroke-width="2" stroke-linecap="round" stroke-linejoin="round"/>
<path d="M50 20.3867V29.2115" stroke="white" stroke-width="2" stroke-linecap="round" stroke-linejoin="round"/>
<path d="M50 12.0879V16.2219" stroke="white" stroke-width="2" stroke-linecap="round" stroke-linejoin="round"/>
<path d="M26.6289 50.0781H29.1661" stroke="white" stroke-width="2" stroke-linecap="round" stroke-linejoin="round"/>
<path d="M12.0664 50.0781H22.483" stroke="white" stroke-width="2" stroke-linecap="round" stroke-linejoin="round"/>
<path d="M78.2585 50.0781H70.832" stroke="white" stroke-width="2" stroke-linecap="round" stroke-linejoin="round"/>
<path d="M87.9286 50.0781H81.9844" stroke="white" stroke-width="2" stroke-linecap="round" stroke-linejoin="round"/>
<path d="M32.7578 32.8145L35.2642 35.3248" stroke="white" stroke-width="2" stroke-linecap="round" stroke-linejoin="round"/>
<path d="M23.1758 23.2168L30.0824 30.1343" stroke="white" stroke-width="2" stroke-linecap="round" stroke-linejoin="round"/>
<path d="M71.2408 28.8047L64.7305 35.3253" stroke="white" stroke-width="2" stroke-linecap="round" stroke-linejoin="round"/>
<path d="M76.8176 23.2168L73.668 26.3714" stroke="white" stroke-width="2" stroke-linecap="round" stroke-linejoin="round"/>
<path d="M34.0664 11.5469L38.8527 23.1242" stroke="white" stroke-width="2" stroke-linecap="round" stroke-linejoin="round"/>
<path d="M29.7031 1L32.5491 7.8866" stroke="white" stroke-width="2" stroke-linecap="round" stroke-linejoin="round"/>
<path d="M91.6138 32.8145L76.9102 38.9124" stroke="white" stroke-width="2" stroke-linecap="round" stroke-linejoin="round"/>
<path d="M99.0012 29.748L96.0625 30.9697" stroke="white" stroke-width="2" stroke-linecap="round" stroke-linejoin="round"/>
<path d="M20.9219 38.0156L23.0886 38.9125" stroke="white" stroke-width="2" stroke-linecap="round" stroke-linejoin="round"/>
<path d="M12.4297 34.4941L17.5453 36.6127" stroke="white" stroke-width="2" stroke-linecap="round" stroke-linejoin="round"/>
<path d="M1 29.748L8.38525 32.8151" stroke="white" stroke-width="2" stroke-linecap="round" stroke-linejoin="round"/>
<path d="M64.8591 14.1543L61.1484 23.1234" stroke="white" stroke-width="2" stroke-linecap="round" stroke-linejoin="round"/>
<path d="M70.2978 1L66.4688 10.2526" stroke="white" stroke-width="2" stroke-linecap="round" stroke-linejoin="round"/>
<path d="M41.8029 38.418C48.4522 38.418 50.0013 45.1964 50.0013 45.1964C50.0013 45.1964 51.5864 38.4438 58.2357 38.4644C62.7904 38.4644 67.0311 41.8252 67.0208 48.3871C67.0208 58.3304 49.9344 68.7273 49.9344 68.7273C49.9344 68.7273 32.9509 58.2427 32.9766 48.2943C32.9869 41.7221 37.2533 38.4026 41.8029 38.418Z" stroke="white" stroke-width="2" stroke-linecap="round" stroke-linejoin="round"/>
</svg>
