<svg width="55" height="52" viewBox="0 0 55 52" fill="none" xmlns="http://www.w3.org/2000/svg">
<path d="M33 29H9C7.343 29 6 30.343 6 32V36L2 40L6 44V48C6 49.657 7.343 51 9 51H33C34.657 51 36 49.657 36 48V32C36 30.343 34.657 29 33 29Z" stroke="#5F249F" stroke-width="2" stroke-miterlimit="10"/>
<path d="M11 35H20" stroke="#5F249F" stroke-width="2" stroke-miterlimit="10"/>
<path d="M11 40H29" stroke="#5F249F" stroke-width="2" stroke-miterlimit="10"/>
<path d="M25 44H23V46H25V44Z" fill="#5F249F"/>
<path d="M21 44H19V46H21V44Z" fill="#5F249F"/>
<path d="M17 44H15V46H17V44Z" fill="#5F249F"/>
<path d="M13 44H11V46H13V44Z" fill="#5F249F"/>
<path d="M29 44H27V46H29V44Z" fill="#5F249F"/>
<path d="M22 26V20C22 18.343 23.343 17 25 17H46C47.657 17 49 18.343 49 20V33L52.853 39H39" stroke="#5F249F" stroke-width="2" stroke-miterlimit="10"/>
<path d="M27 21H36" stroke="#5F249F" stroke-width="2" stroke-miterlimit="10"/>
<path d="M27 25H44" stroke="#5F249F" stroke-width="2" stroke-miterlimit="10"/>
<path d="M21.9991 23H14.2461L16.9991 18V12C16.9991 10.343 18.3421 9 19.9991 9H35.9991C37.6561 9 38.9991 10.343 38.9991 12V17" stroke="#5F249F" stroke-width="2" stroke-miterlimit="10"/>
<path d="M39 29H44" stroke="#5F249F" stroke-width="2" stroke-miterlimit="10"/>
<path d="M0 6H4" stroke="#5F249F" stroke-width="2" stroke-miterlimit="10"/>
<path d="M8 6H12" stroke="#5F249F" stroke-width="2" stroke-miterlimit="10"/>
<path d="M6 8V12" stroke="#5F249F" stroke-width="2" stroke-miterlimit="10"/>
<path d="M6 0V4" stroke="#5F249F" stroke-width="2" stroke-miterlimit="10"/>
<path d="M44 43H49" stroke="#5F249F" stroke-width="2" stroke-miterlimit="10"/>
<path d="M40 52V47" stroke="#5F249F" stroke-width="2" stroke-miterlimit="10"/>
<path d="M46.5993 49.5998L43.4023 46.4028" stroke="#5F249F" stroke-width="2" stroke-miterlimit="10"/>
</svg>
