<svg width="30" height="30" viewBox="0 0 30 30" fill="none" xmlns="http://www.w3.org/2000/svg">
<rect width="30" height="30" rx="15" fill="#D8DAE6"/>
<path d="M14.5139 23.0706C8.06125 23.3328 3.84755 15.036 9.73003 11.4021C11.0697 10.6074 11.2672 8.94222 12.5229 8.04551C13.9354 6.83565 16.0084 6.66817 17.756 7.23559C26.7688 9.8603 23.4164 23.2115 14.5139 23.0706ZM19.5592 16.279C18.5134 15.982 19.7386 19.1567 15.9963 19.5104C15.3803 19.5104 15.4137 20.456 16.0371 20.4067C16.6754 20.3652 17.3031 20.2108 17.8654 19.9226C18.6177 19.5449 19.1944 18.9984 19.5954 18.2831C19.8058 17.7654 20.611 16.1787 19.5592 16.279Z" fill="#FAFAFC"/>
</svg>
