<svg width="30" height="30" viewBox="0 0 30 30" fill="none" xmlns="http://www.w3.org/2000/svg">
<circle cx="15" cy="15" r="15" fill="#D8DAE6"/>
<path fill-rule="evenodd" clip-rule="evenodd" d="M21.871 8.73199C22.6124 8.94104 23.1969 9.55325 23.3965 10.3297C23.7672 11.7483 23.7529 14.7048 23.7529 14.7048C23.7529 14.7048 23.7529 17.6465 23.3965 19.065C23.1969 19.8415 22.6124 20.4537 21.871 20.6628C20.5167 21.0361 15.0991 21.0361 15.0991 21.0361C15.0991 21.0361 9.69584 21.0361 8.3272 20.6478C7.58585 20.4388 7.00132 19.8266 6.80173 19.0501C6.44531 17.6465 6.44531 14.6899 6.44531 14.6899C6.44531 14.6899 6.44531 11.7483 6.80173 10.3297C7.00132 9.55325 7.6001 8.9261 8.3272 8.71705C9.68158 8.34375 15.0991 8.34375 15.0991 8.34375C15.0991 8.34375 20.5167 8.34375 21.871 8.73199ZM17.8792 14.5862L13.374 17.3039V11.8686L17.8792 14.5862Z" fill="#FAFAFC"/>
</svg>
