<svg width="30" height="30" viewBox="0 0 30 30" fill="none" xmlns="http://www.w3.org/2000/svg">
<rect width="30" height="30" rx="15" fill="#D8DAE6"/>
<path fill-rule="evenodd" clip-rule="evenodd" d="M22.4587 11.8103C22.4652 11.9752 22.4673 12.14 22.4673 12.305C22.4673 17.3049 18.896 23.0771 12.3652 23.0771C10.359 23.0771 8.4936 22.4474 6.92188 21.3755C7.1997 21.4055 7.48187 21.428 7.76836 21.428C9.43172 21.428 10.9638 20.8207 12.179 19.8012C10.6253 19.7787 9.31338 18.6768 8.86092 17.1775C9.07813 17.2225 9.30182 17.245 9.53058 17.245C9.85315 17.245 10.1663 17.2001 10.4665 17.1102C8.84069 16.7653 7.61609 15.2361 7.61609 13.3996C7.61609 13.3771 7.61609 13.3695 7.61609 13.3545C8.09526 13.6319 8.64369 13.8042 9.22605 13.8267C8.27205 13.1446 7.64494 11.9827 7.64494 10.6708C7.64494 9.98117 7.81958 9.32896 8.12699 8.76674C9.87768 11.0606 12.4951 12.5674 15.4458 12.7248C15.3852 12.4474 15.3542 12.1551 15.3542 11.8628C15.3542 9.77134 16.9439 8.07715 18.9053 8.07715C19.9264 8.07715 20.8487 8.53449 21.496 9.26912C22.3064 9.1042 23.0656 8.78938 23.7526 8.3546C23.4863 9.23915 22.9241 9.98113 22.1895 10.4459C22.9082 10.3559 23.5938 10.1537 24.2296 9.85385C23.7526 10.611 23.1522 11.278 22.4587 11.8103Z" fill="#FAFAFC"/>
</svg>
