<svg width="30" height="30" viewBox="0 0 30 30" fill="none" xmlns="http://www.w3.org/2000/svg">
<path d="M15 0C6.71569 0 0 6.71569 0 15C0 23.2843 6.71569 30 15 30C23.2843 30 30 23.2843 30 15C30 6.71569 23.2843 0 15 0ZM8.51046 12.5131C7.99894 12.5132 7.49887 12.3616 7.07349 12.0776C6.64811 11.7935 6.31652 11.3897 6.12065 10.9171C5.92478 10.4446 5.87343 9.9246 5.9731 9.42288C6.07276 8.92117 6.31896 8.46028 6.68057 8.09849C7.04218 7.7367 7.50294 7.49026 8.00461 7.39035C8.50627 7.29043 9.0263 7.34151 9.49893 7.53714C9.97155 7.73277 10.3756 8.06416 10.6599 8.4894C10.9441 8.91464 11.096 9.41463 11.0961 9.92614C11.0961 10.612 10.8237 11.2698 10.3388 11.7549C9.85399 12.24 9.19633 12.5127 8.51046 12.5131ZM15 25.4902C14.4886 25.4902 13.9887 25.3386 13.5635 25.0544C13.1383 24.7703 12.8069 24.3665 12.6112 23.8941C12.4155 23.4216 12.3643 22.9017 12.4641 22.4001C12.5638 21.8986 12.8101 21.4379 13.1717 21.0763C13.5333 20.7147 13.994 20.4684 14.4956 20.3686C14.9971 20.2689 15.517 20.3201 15.9895 20.5158C16.4619 20.7115 16.8658 21.0429 17.1499 21.4681C17.434 21.8933 17.5856 22.3932 17.5856 22.9046C17.5856 23.5903 17.3132 24.248 16.8283 24.7329C16.3434 25.2178 15.6858 25.4902 15 25.4902ZM15 19.0007C14.4886 19.0007 13.9887 18.849 13.5635 18.5649C13.1383 18.2808 12.8069 17.877 12.6112 17.4045C12.4155 16.932 12.3643 16.4122 12.4641 15.9106C12.5638 15.409 12.8101 14.9483 13.1717 14.5867C13.5333 14.2251 13.994 13.9789 14.4956 13.8791C14.9971 13.7793 15.517 13.8305 15.9895 14.0262C16.4619 14.2219 16.8658 14.5533 17.1499 14.9785C17.434 15.4037 17.5856 15.9036 17.5856 16.415C17.5859 16.7546 17.5193 17.0909 17.3896 17.4047C17.2599 17.7185 17.0696 18.0036 16.8297 18.2439C16.5898 18.4842 16.3049 18.6749 15.9913 18.805C15.6777 18.9352 15.3415 19.0024 15.002 19.0026L15 19.0007ZM15 12.5111C14.4885 12.5112 13.9884 12.3597 13.563 12.0756C13.1377 11.7915 12.8061 11.3877 12.6102 10.9152C12.4143 10.4426 12.363 9.92264 12.4626 9.42092C12.5623 8.91921 12.8085 8.45832 13.1701 8.09653C13.5317 7.73474 13.9925 7.4883 14.4942 7.38838C14.9958 7.28847 15.5158 7.33955 15.9885 7.53518C16.4611 7.73081 16.8651 8.0622 17.1494 8.48744C17.4337 8.91268 17.5855 9.41267 17.5856 9.92418C17.586 10.6101 17.3139 11.268 16.8293 11.7533C16.3447 12.2387 15.6872 12.5117 15.0013 12.5124L15 12.5111ZM21.4895 12.5111C20.978 12.5111 20.478 12.3594 20.0527 12.0752C19.6274 11.7911 19.2959 11.3871 19.1001 10.9146C18.9044 10.442 18.8532 9.92197 18.953 9.42028C19.0528 8.91859 19.2991 8.45776 19.6608 8.09606C20.0225 7.73437 20.4833 7.48805 20.985 7.38826C21.4867 7.28847 22.0067 7.33968 22.4793 7.53543C22.9518 7.73118 23.3558 8.06267 23.6399 8.48798C23.9241 8.91329 24.0758 9.41332 24.0758 9.92484C24.0756 10.6107 23.8031 11.2684 23.3181 11.7534C22.8331 12.2384 22.1754 12.5109 21.4895 12.5111Z" fill="#D8DAE6"/>
</svg>
